<?xml version="1.0" encoding="UTF-8"?>
<svg id="Layer_1_stacked" data-name="Layer 1 stacked" xmlns="http://www.w3.org/2000/svg" viewBox="0 0 773.82 188.06">
  <defs>
    <style>
      .cls-1 {
        fill: #58595b;
      }

      .cls-2 {
        fill: #d1d3d4;
      }

      .cls-3 {
        fill: #ee7623;
      }

      .cls-4 {
        fill: #414042;
      }

      .cls-5 {
        fill: #939598;
      }
    </style>
  </defs>
  <g id="Roof">
    <polygon class="cls-1" points="435.72 115.56 368.6 115.56 292.58 .34 359.7 .34 435.72 115.56"/>
    <polygon class="cls-5" points="512.26 115.56 445.14 115.56 369.12 .34 436.24 .34 512.26 115.56"/>
    <polygon class="cls-2" points="588.8 115.56 521.68 115.56 445.65 .34 512.77 .34 588.8 115.56"/>
    <polyline class="cls-3" points="259.68 26.52 184.25 115.56 225.77 115.56 276.81 54.41 317.45 115.56 359.04 115.56 300.47 27.29 282.47 0"/>
  </g>
  <g>
    <path class="cls-4" d="M10.1,155.9H0v-8.1h29.45v8.1h-10.05v27.93h-9.29v-27.93Z"/>
    <path class="cls-4" d="M53.6,178.38h-14.97l-1.84,5.46h-10.1l13.56-36.04h11.67l13.62,36.04h-10.1l-1.84-5.46ZM41.06,170.55h10.1l-5.08-14.64-5.02,14.64Z"/>
    <path class="cls-4" d="M74.35,169.3l-13.67-21.5h10.48l7.83,13.29,7.73-13.29h10.54l-13.62,21.5v14.53h-9.29v-14.53Z"/>
    <path class="cls-4" d="M99.9,147.8h9.29v27.93h14.48v8.1h-23.77v-36.04Z"/>
    <path class="cls-4" d="M144.64,147.21c11.02,0,19.24,7.67,19.24,18.64s-8.21,18.64-19.24,18.64-19.29-7.67-19.29-18.64,8.27-18.64,19.29-18.64ZM144.64,155.42c-6,0-9.83,4.54-9.83,10.43s3.84,10.43,9.83,10.43,9.78-4.59,9.78-10.43-3.84-10.43-9.78-10.43Z"/>
    <path class="cls-4" d="M182.62,171.63h-4.75v12.21h-9.29v-36.04h18.05c8,0,12.54,5.29,12.54,12,0,6.27-3.84,9.62-7.19,10.81l7.35,13.24h-10.64l-6.05-12.21ZM185.22,155.63h-7.35v8.1h7.35c2.43,0,4.48-1.57,4.48-4.05s-2.05-4.05-4.48-4.05Z"/>
    <path class="cls-4" d="M232.17,171.63h-4.75v12.21h-9.29v-36.04h18.05c8,0,12.54,5.29,12.54,12,0,6.27-3.84,9.62-7.19,10.81l7.35,13.24h-10.64l-6.05-12.21ZM234.76,155.63h-7.35v8.1h7.35c2.43,0,4.48-1.57,4.48-4.05s-2.05-4.05-4.48-4.05Z"/>
    <path class="cls-4" d="M271.29,147.21c11.02,0,19.24,7.67,19.24,18.64s-8.21,18.64-19.24,18.64-19.29-7.67-19.29-18.64,8.27-18.64,19.29-18.64ZM271.29,155.42c-6,0-9.83,4.54-9.83,10.43s3.84,10.43,9.83,10.43,9.78-4.59,9.78-10.43-3.84-10.43-9.78-10.43Z"/>
    <path class="cls-4" d="M312.68,147.21c11.02,0,19.24,7.67,19.24,18.64s-8.21,18.64-19.24,18.64-19.29-7.67-19.29-18.64,8.27-18.64,19.29-18.64ZM312.68,155.42c-6,0-9.83,4.54-9.83,10.43s3.84,10.43,9.83,10.43,9.78-4.59,9.78-10.43-3.84-10.43-9.78-10.43Z"/>
    <path class="cls-4" d="M336.61,147.8h26.42v7.83h-17.13v6h16.75v7.89h-16.75v14.32h-9.29v-36.04Z"/>
    <path class="cls-4" d="M368.06,147.8h9.29v36.04h-9.29v-36.04Z"/>
    <path class="cls-4" d="M393.13,162.06v21.77h-9.29v-36.04h9.56l14.59,20.75v-20.75h9.35v36.04h-8.97l-15.24-21.77Z"/>
    <path class="cls-4" d="M441.48,147.21c7.89,0,12.75,3.89,15.4,8.37l-7.78,4.11c-1.46-2.38-4.21-4.27-7.62-4.27-5.89,0-10.05,4.54-10.05,10.43s4.16,10.43,10.05,10.43c2.81,0,5.35-.97,6.81-2.16v-3.03h-8.27v-7.73h17.4v14.1c-3.89,4.27-9.13,7.02-15.94,7.02-10.75,0-19.5-7.19-19.5-18.64s8.75-18.64,19.5-18.64Z"/>
    <path class="cls-4" d="M498.22,183.84c-.59-.59-1.3-1.35-2.11-2.21-2.7,1.78-5.83,2.86-9.46,2.86-6.81,0-12.21-3.51-12.21-10.64,0-5.4,3.57-8.21,7.67-10.27-1.35-2.54-2.21-5.13-2.21-7.51,0-4.92,4.48-8.81,10.91-8.81,5.29,0,10.1,2.92,10.1,7.89,0,5.51-4.32,7.83-8.7,9.78.92,1.24,1.78,2.38,2.54,3.3.81,1.03,1.67,2.05,2.49,3.03,1.35-2,2.38-4.27,3.03-6.32l6.48,3.08c-1.35,2.86-3.03,5.78-5.08,8.38,2.22,2.43,4.49,4.86,6.97,7.46h-10.43ZM491.79,176.87c-1.35-1.51-2.59-2.97-3.4-3.94-1.03-1.3-2.11-2.76-3.19-4.21-1.24,1.08-2.05,2.49-2.05,4.32,0,3.03,2.21,5.03,4.7,5.03,1.35,0,2.7-.43,3.94-1.19ZM489.35,160.44c2.59-1.24,4.49-2.59,4.49-4.81,0-1.51-1.13-2.49-2.65-2.49-1.78,0-3.13,1.3-3.13,3.08,0,1.24.54,2.7,1.3,4.21Z"/>
    <path class="cls-4" d="M527.93,171.79c2.59,2.59,6.59,4.75,11.51,4.75,3.19,0,5.13-1.35,5.13-3.08,0-2.05-2.32-2.86-6.16-3.67-5.94-1.19-14.26-2.7-14.26-11.24,0-6.05,5.13-11.29,14.37-11.29,5.78,0,10.81,1.73,14.64,5.02l-5.08,6.65c-3.03-2.49-6.97-3.73-10.16-3.73s-4.27,1.24-4.27,2.81c0,1.89,2.21,2.54,6.21,3.3,5.94,1.24,14.16,2.97,14.16,11.13,0,7.24-5.35,12.05-15.02,12.05-7.29,0-12.37-2.27-15.99-5.73l4.92-6.97Z"/>
    <path class="cls-4" d="M558.35,147.8h9.29v36.04h-9.29v-36.04Z"/>
    <path class="cls-4" d="M574.13,147.8h15.13c11.35,0,19.5,6.81,19.5,17.99s-8.16,18.05-19.45,18.05h-15.18v-36.04ZM589.26,175.73c6.32,0,10-4.59,10-9.94s-3.35-9.89-9.94-9.89h-5.89v19.83h5.84Z"/>
    <path class="cls-4" d="M613.41,147.8h9.29v36.04h-9.29v-36.04Z"/>
    <path class="cls-4" d="M638.48,162.06v21.77h-9.29v-36.04h9.56l14.59,20.75v-20.75h9.35v36.04h-8.97l-15.24-21.77Z"/>
    <path class="cls-4" d="M686.84,147.21c7.89,0,12.75,3.89,15.4,8.37l-7.78,4.11c-1.46-2.38-4.21-4.27-7.62-4.27-5.89,0-10.05,4.54-10.05,10.43s4.16,10.43,10.05,10.43c2.81,0,5.35-.97,6.81-2.16v-3.03h-8.27v-7.73h17.4v14.1c-3.89,4.27-9.13,7.02-15.94,7.02-10.75,0-19.5-7.19-19.5-18.64s8.75-18.64,19.5-18.64Z"/>
    <path class="cls-4" d="M706.65,186.51c.95-.48,2.2-1.66,2.53-2.76-.15.06-.42.12-.68.12-1.28,0-2.32-1.07-2.32-2.53s1.25-2.73,2.73-2.73c1.6,0,3.03,1.25,3.03,3.42,0,2.44-1.31,4.58-3.39,6.03l-1.9-1.55Z"/>
    <path class="cls-4" d="M723.53,164.01h5.11v15.37h7.97v4.46h-13.08v-19.83Z"/>
    <path class="cls-4" d="M739.85,164.01h5.11v15.37h7.97v4.46h-13.08v-19.83Z"/>
    <path class="cls-4" d="M754.44,173.94c0-6.12,4.64-10.25,10.58-10.25,4.93,0,7.49,2.71,8.8,5.32l-4.4,2.08c-.65-1.58-2.35-2.88-4.4-2.88-3.09,0-5.38,2.5-5.38,5.74s2.29,5.74,5.38,5.74c2.05,0,3.75-1.31,4.4-2.88l4.4,2.08c-1.28,2.56-3.86,5.32-8.8,5.32-5.94,0-10.58-4.16-10.58-10.25Z"/>
  </g>
</svg>